HIERARCHY
ROOT Hips
{
  OFFSET 207.228 101.594 272.306
  CHANNELS 6 Xposition Yposition Zposition Zrotation Xrotation Yrotation
  JOINT RightUpLeg
  {
    OFFSET -8.9458 -8.66707 0.101652
    CHANNELS 3 Zrotation Xrotation Yrotation
    JOINT RightLeg
    {
      OFFSET 0 -44.4227 1.3727
      CHANNELS 3 Zrotation Xrotation Yrotation
      JOINT RightFoot
      {
        OFFSET 0.253549 -42.0924 -1.46059
        CHANNELS 3 Zrotation Xrotation Yrotation
        JOINT RightToes
        {
          OFFSET 0.04 -4.41509 8.4991
          CHANNELS 3 Zrotation Xrotation Yrotation
          End Site
          {
            OFFSET -0.08 -0.137448 9.77979
          }
        }
      }
    }
  }
  JOINT Spine
  {
    OFFSET 0 11.8905 0
    CHANNELS 3 Zrotation Xrotation Yrotation
    JOINT Spine1
    {
      OFFSET 0 25.6574 0.127663
      CHANNELS 3 Zrotation Xrotation Yrotation
      JOINT HEad
      {
        OFFSET 0 8.73416 0.011341
        CHANNELS 3 Zrotation Xrotation Yrotation
        End Site
        {
          OFFSET -0.29 12.7742 2.51395
        }
      }
      JOINT LeftShoulder1
      {
        OFFSET 8.99 -0.362252 -0.22
        CHANNELS 3 Zrotation Xrotation Yrotation
        JOINT LeftArm
        {
          OFFSET 10.2827 -0.00338 0.322123
          CHANNELS 3 Zrotation Xrotation Yrotation
          JOINT LeftForeArm
          {
            OFFSET 32.7669 0.099144 -1.42434
            CHANNELS 3 Zrotation Xrotation Yrotation
            JOINT LeftHand
            {
              OFFSET 27.5643 0.085362 1.02216
              CHANNELS 3 Zrotation Xrotation Yrotation
              End Site
              {
                OFFSET 16.7443 -0.6 1.50291
              }
            }
          }
        }
      }
      JOINT RightShoulder
      {
        OFFSET -8.99 -0.362252 -0.22
        CHANNELS 3 Zrotation Xrotation Yrotation
        JOINT RightArm
        {
          OFFSET -10.2827 -0.00338 0.322123
          CHANNELS 3 Zrotation Xrotation Yrotation
          JOINT RightForeArm
          {
            OFFSET -32.8971 0.099144 -1.42434
            CHANNELS 3 Zrotation Xrotation Yrotation
            JOINT RightHand
            {
              OFFSET -27.4921 0.085362 1.02216
              CHANNELS 3 Zrotation Xrotation Yrotation
              End Site
              {
                OFFSET -16.6312 -0.6 1.50291
              }
            }
          }
        }
      }
    }
  }
  JOINT LeftUpLeg
  {
    OFFSET 8.9458 -8.66707 0.101652
    CHANNELS 3 Zrotation Xrotation Yrotation
    JOINT LeftLeg
    {
      OFFSET 0 -44.4227 1.3727
      CHANNELS 3 Zrotation Xrotation Yrotation
      JOINT LeftFoot
      {
        OFFSET -0.253549 -42.0924 -1.46059
        CHANNELS 3 Zrotation Xrotation Yrotation
        JOINT LeftToes
        {
          OFFSET -0.04 -4.41509 8.4991
          CHANNELS 3 Zrotation Xrotation Yrotation
          End Site
          {
            OFFSET 0.08 -0.047448 9.77979
          }
        }
      }
    }
  }
}
MOTION
Frames:	7
Frame Time:	0.0166667
0	103.982	0	0.504597	0.151993	163.931	1.72946	-0.381675	3.27138	-0.022443	9.9931	8.34123	1.66023	-8.28398	0.236156	0.0462048	0.000533964	0.662642	-0.101109	-3.32294	-1.67287	-0.319576	-6.63842	-3.36089	1.71385	11.1978	14.5181	8.83E-32	1.59E-15	-3.18E-15	-4.97629	-15.7974	-13.3012	0.722612	10.2676	-3.71554	4.9961	10.9235	4.26446	8.83E-32	1.59E-15	-3.18E-15	4.08623	-15.477	-1.13821	2.64703	16.0963	-4.14466	-0.987831	13.502	-2.5363	-2.88097	1.67633	9.79969	1.75	9.55667	0.303867	-5.6248	-18.332	-1.48831	1.43E-14	3.18E-14	4.77E-15
-0.013	103.985	-0.02	0.495577	0.126664	163.944	1.71995	-0.396653	3.29242	-0.0276661	9.98307	8.33996	1.65695	-8.27664	0.229485	0.0462048	0.000533964	0.662642	-0.101236	-3.3242	-1.67442	-0.313453	-6.64104	-3.36383	1.692	11.2548	14.4362	-3.98E-16	0.00E+00	-6.36E-15	-4.98826	-15.8024	-13.3235	0.689115	10.2904	-3.72739	5.01008	10.9268	4.24152	-3.98E-16	0.00E+00	-6.36E-15	4.06597	-15.4979	-1.1742	2.68519	16.1142	-4.18656	-0.91535	13.5189	-2.57438	-2.89505	1.65676	9.82292	1.74942	9.55136	0.277452	-5.61914	-18.3278	-1.4938	1.49E-14	3.26E-14	5.57E-15
-0.024	103.99	-0.04	0.489119	0.102695	163.957	1.71675	-0.409093	3.32824	-0.0356841	9.97482	8.32666	1.66044	-8.27004	0.224742	0.0462048	0.000533964	0.662642	-0.101437	-3.32467	-1.67766	-0.30716	-6.64491	-3.37017	1.68706	11.288	14.4	7.95E-16	-1.59E-15	3.18E-15	-4.99546	-15.7908	-13.3516	0.657295	10.318	-3.72889	5.02346	10.9196	4.23562	7.95E-16	-1.59E-15	3.18E-15	4.03786	-15.5261	-1.21871	2.71446	16.1334	-4.22693	-0.891081	13.5176	-2.58987	-2.90298	1.64113	9.83663	1.74236	9.54449	0.270776	-5.60923	-18.3263	-1.4962	1.43E-14	3.02E-14	3.98E-15
-0.035	103.99	-0.06	0.483218	0.0769941	163.971	1.71015	-0.422684	3.36825	-0.0397358	9.96593	8.31248	1.66518	-8.26721	0.220261	0.0462048	0.000533964	0.662642	-0.101689	-3.32492	-1.68187	-0.302281	-6.64824	-3.37847	1.69948	11.2891	14.392	-7.95E-16	1.59E-15	1.27E-14	-4.97712	-15.7769	-13.3777	0.60935	10.3455	-3.72393	5.03479	10.9083	4.21879	-7.95E-16	1.59E-15	1.27E-14	4.0075	-15.5367	-1.26635	2.73266	16.1468	-4.26607	-0.913092	13.5169	-2.60812	-2.91293	1.62051	9.83941	1.73684	9.53998	0.2685	-5.59978	-18.3259	-1.49762	1.43E-14	3.02E-14	4.77E-15
-0.047	103.991	-0.08	0.479649	0.0564976	163.992	1.70075	-0.430822	3.39232	-0.0404315	9.95842	8.30276	1.66775	-8.26536	0.220573	0.0462048	0.000533964	0.662642	-0.0990555	-3.32499	-1.68841	-0.29745	-6.64997	-3.39144	1.73397	11.2687	14.3888	3.98E-16	0.00E+00	6.36E-15	-4.93758	-15.7603	-13.4033	0.552694	10.359	-3.71028	5.05373	10.9085	4.19245	3.98E-16	0.00E+00	6.36E-15	3.95352	-15.5326	-1.31921	2.76357	16.2107	-4.30274	-0.944749	13.5251	-2.62761	-2.91853	1.61152	9.86473	1.73254	9.52898	0.229919	-5.58791	-18.3262	-1.49819	1.44E-14	3.18E-14	5.57E-15
-0.06	103.992	-0.1	0.477913	0.0367584	164.006	1.69095	-0.440107	3.40584	-0.0418195	9.95621	8.30196	1.66937	-8.26438	0.225134	0.0462048	0.000533964	0.662642	-0.0965542	-3.3249	-1.6942	-0.292936	-6.65102	-3.40291	1.78527	11.2386	14.3822	-7.95E-16	1.59E-15	3.18E-15	-4.88533	-15.7565	-13.4265	0.492414	10.3864	-3.68425	5.06955	10.9079	4.16564	-7.95E-16	1.59E-15	3.18E-15	3.89139	-15.5094	-1.36598	2.80194	16.3116	-4.35222	-0.968913	13.5384	-2.63868	-2.92115	1.60491	9.90555	1.72756	9.51684	0.182436	-5.57356	-18.327	-1.49803	1.22E-14	3.10E-14	4.77E-15
-0.075	103.993	-0.12	0.479279	0.0168835	164.011	1.68524	-0.447729	3.40676	-0.0439297	9.94966	8.31511	1.67069	-8.26418	0.231251	0.0462048	0.000533964	0.662642	-0.093974	-3.32465	-1.69889	-0.288486	-6.65113	-3.41218	1.84792	11.2068	14.3754	0.00E+00	0.00E+00	-3.18E-15	-4.82998	-15.7752	-13.4555	0.447788	10.4274	-3.6471	5.07008	10.9066	4.16135	0.00E+00	0.00E+00	-3.18E-15	3.81732	-15.4772	-1.40019	2.85328	16.3974	-4.41579	-0.966421	13.5697	-2.65618	-2.92063	1.60179	9.92889	1.70966	9.50251	0.167196	-5.55786	-18.328	-1.49727	1.25E-14	3.26E-14	4.77E-15
